<svg width="296" height="132" viewBox="0 0 296 132" fill="none" xmlns="http://www.w3.org/2000/svg">
<path d="M312.214 243.169C329.391 226.867 329.47 225.674 315.315 210.803C304.898 199.909 303.466 197.205 302.671 187.503C301.796 176.609 304.42 170.962 315.554 159.511C328.595 146.072 328.595 143.686 316.11 131.44C310.226 125.634 307.601 122.453 305.534 118.398C302.989 113.229 302.83 112.434 302.83 104.879C302.83 98.4375 303.148 96.2904 304.42 93.7456C307.522 87.6224 310.782 83.4076 316.587 78.0001C328.039 67.2645 328.198 63.3679 317.621 52.4732C306.965 41.5786 305.136 40.1472 300.842 40.1472C296.548 40.1472 294.719 41.5786 284.063 52.4732C273.247 63.6064 273.566 66.7873 286.369 79.2724C291.697 84.521 294.162 87.6224 296.468 92.1552C299.41 97.9603 299.41 98.1194 299.092 105.515C298.615 116.092 296.548 119.988 285.653 131.28C273.088 144.322 273.088 145.913 286.21 159.511C297.263 170.962 299.888 176.609 299.013 187.503C298.218 197.205 296.786 199.909 286.369 210.803C272.214 225.674 272.293 226.867 289.47 243.169C296.707 250.008 296.945 250.088 300.842 250.088C304.738 250.088 304.977 250.008 312.214 243.169Z" fill="#007844" fill-opacity="0.05"/>
<path d="M128.121 243.169C145.298 226.867 145.377 225.674 131.222 210.803C120.805 199.909 119.373 197.205 118.578 187.503C117.703 176.609 120.328 170.962 131.461 159.511C144.503 146.072 144.503 143.686 132.018 131.44C126.133 125.634 123.509 122.453 121.441 118.398C118.896 113.229 118.737 112.434 118.737 104.879C118.737 98.4375 119.055 96.2904 120.328 93.7456C123.429 87.6224 126.689 83.4076 132.495 78.0001C143.946 67.2645 144.105 63.3679 133.528 52.4732C122.872 41.5786 121.043 40.1472 116.749 40.1472C112.455 40.1472 110.626 41.5786 99.9698 52.4732C89.1546 63.6064 89.4727 66.7873 102.276 79.2724C107.604 84.521 110.069 87.6224 112.375 92.1552C115.318 97.9603 115.318 98.1194 115 105.515C114.522 116.092 112.455 119.988 101.56 131.28C88.9956 144.322 88.9956 145.913 102.117 159.511C113.171 170.962 115.795 176.609 114.92 187.503C114.125 197.205 112.693 199.909 102.276 210.803C88.1208 225.674 88.2004 226.867 105.377 243.169C112.614 250.008 112.852 250.088 116.749 250.088C120.646 250.088 120.884 250.008 128.121 243.169Z" fill="#007844" fill-opacity="0.05"/>
<path d="M220.168 243.169C237.345 226.867 237.424 225.674 223.269 210.803C212.852 199.909 211.42 197.205 210.625 187.503C209.75 176.609 212.375 170.962 223.508 159.511C236.549 146.072 236.549 143.686 224.064 131.44C218.18 125.634 215.555 122.453 213.488 118.398C210.943 113.229 210.784 112.434 210.784 104.879C210.784 98.4375 211.102 96.2904 212.375 93.7456C215.476 87.6224 218.736 83.4076 224.542 78.0001C235.993 67.2645 236.152 63.3679 225.575 52.4732C214.919 41.5786 213.09 40.1472 208.796 40.1472C204.502 40.1472 202.673 41.5786 192.017 52.4732C181.202 63.6064 181.52 66.7873 194.323 79.2724C199.651 84.521 202.116 87.6224 204.422 92.1552C207.365 97.9603 207.365 98.1194 207.046 105.515C206.569 116.092 204.502 119.988 193.607 131.28C181.042 144.322 181.042 145.913 194.164 159.511C205.217 170.962 207.842 176.609 206.967 187.503C206.172 197.205 204.74 199.909 194.323 210.803C180.168 225.674 180.247 226.867 197.424 243.169C204.661 250.008 204.899 250.088 208.796 250.088C212.693 250.088 212.931 250.008 220.168 243.169Z" fill="#007844" fill-opacity="0.05"/>
<path d="M36.074 243.169C53.251 226.867 53.3305 225.674 39.1754 210.803C28.7579 199.909 27.3265 197.205 26.5313 187.503C25.6565 176.609 28.2808 170.962 39.414 159.511C52.4557 146.072 52.4557 143.686 39.9706 131.44C34.0859 125.634 31.4617 122.453 29.3941 118.398C26.8493 113.229 26.6903 112.434 26.6903 104.879C26.6903 98.4375 27.0084 96.2904 28.2808 93.7456C31.3822 87.6224 34.6426 83.4076 40.4478 78.0001C51.8991 67.2645 52.0581 63.3679 41.4816 52.4732C30.8255 41.5786 28.9965 40.1472 24.7022 40.1472C20.408 40.1472 18.579 41.5786 7.92289 52.4732C-2.89224 63.6064 -2.57414 66.7873 10.229 79.2724C15.5571 84.521 18.0223 87.6224 20.3285 92.1552C23.2708 97.9603 23.2708 98.1194 22.9527 105.515C22.4756 116.092 20.408 119.988 9.51334 131.28C-3.05128 144.322 -3.05128 145.913 10.07 159.511C21.1237 170.962 23.7479 176.609 22.8732 187.503C22.078 197.205 20.6466 199.909 10.229 210.803C-3.92604 225.674 -3.84651 226.867 13.3304 243.169C20.567 250.008 20.8056 250.088 24.7022 250.088C28.5988 250.088 28.8374 250.008 36.074 243.169Z" fill="#007844" fill-opacity="0.05"/>
<path d="M266.19 203.023C283.367 186.721 283.447 185.528 269.292 170.657C258.874 159.762 257.443 157.059 256.647 147.357C255.773 136.462 258.397 130.816 269.53 119.365C282.572 105.925 282.572 103.54 270.087 91.293C264.202 85.4878 261.578 82.3069 259.51 78.2513C256.966 73.0823 256.807 72.287 256.807 64.7324C256.807 58.291 257.125 56.1439 258.397 53.5991C261.498 47.4759 264.759 43.2612 270.564 37.8536C282.015 27.118 282.174 23.2214 271.598 12.3267C260.942 1.43208 259.113 0.000671143 254.818 0.000671092C250.524 0.000671041 248.695 1.43208 238.039 12.3267C227.224 23.4599 227.542 26.6409 240.345 39.126C245.673 44.3745 248.139 47.4759 250.445 52.0087C253.387 57.8139 253.387 57.9729 253.069 65.3685C252.592 75.9451 250.524 79.8417 239.63 91.134C227.065 104.176 227.065 105.766 240.186 119.365C251.24 130.816 253.864 136.462 252.989 147.357C252.194 157.059 250.763 159.762 240.345 170.657C226.19 185.528 226.27 186.721 243.447 203.023C250.683 209.862 250.922 209.941 254.818 209.941C258.715 209.941 258.954 209.862 266.19 203.023Z" fill="#007844" fill-opacity="0.05"/>
<path d="M82.0979 203.023C99.2749 186.721 99.3544 185.528 85.1993 170.657C74.7818 159.762 73.3504 157.059 72.5552 147.357C71.6804 136.462 74.3047 130.816 85.4379 119.365C98.4797 105.925 98.4797 103.54 85.9946 91.293C80.1099 85.4878 77.4856 82.3069 75.418 78.2513C72.8733 73.0823 72.7142 72.287 72.7142 64.7324C72.7142 58.291 73.0323 56.1439 74.3047 53.5991C77.4061 47.4759 80.6665 43.2612 86.4717 37.8536C97.923 27.118 98.082 23.2214 87.5055 12.3267C76.8494 1.43208 75.0204 0.000671143 70.7262 0.000671092C66.4319 0.000671041 64.6029 1.43208 53.9468 12.3267C43.1317 23.4599 43.4498 26.6409 56.253 39.126C61.581 44.3745 64.0462 47.4759 66.3524 52.0087C69.2947 57.8139 69.2947 57.9729 68.9766 65.3685C68.4995 75.9451 66.4319 79.8417 55.5373 91.134C42.9726 104.176 42.9726 105.766 56.0939 119.365C67.1476 130.816 69.7719 136.462 68.8971 147.357C68.1019 157.059 66.6705 159.762 56.253 170.657C42.0979 185.528 42.1774 186.721 59.3544 203.023C66.591 209.862 66.8295 209.941 70.7261 209.941C74.6228 209.941 74.8613 209.862 82.0979 203.023Z" fill="#007844" fill-opacity="0.05"/>
<path d="M174.144 203.023C191.321 186.721 191.4 185.528 177.245 170.657C166.828 159.762 165.396 157.059 164.601 147.357C163.726 136.462 166.351 130.816 177.484 119.365C190.526 105.925 190.526 103.54 178.04 91.293C172.156 85.4878 169.531 82.3069 167.464 78.2513C164.919 73.0823 164.76 72.287 164.76 64.7324C164.76 58.291 165.078 56.1439 166.351 53.5991C169.452 47.4759 172.712 43.2612 178.518 37.8536C189.969 27.118 190.128 23.2214 179.551 12.3267C168.895 1.43208 167.066 0.000671143 162.772 0.000671092C158.478 0.000671041 156.649 1.43208 145.993 12.3267C135.178 23.4599 135.496 26.6409 148.299 39.126C153.627 44.3745 156.092 47.4759 158.398 52.0087C161.341 57.8139 161.341 57.9729 161.023 65.3685C160.545 75.9451 158.478 79.8417 147.583 91.134C135.019 104.176 135.019 105.766 148.14 119.365C159.194 130.816 161.818 136.462 160.943 147.357C160.148 157.059 158.716 159.762 148.299 170.657C134.144 185.528 134.223 186.721 151.4 203.023C158.637 209.862 158.875 209.941 162.772 209.941C166.669 209.941 166.907 209.862 174.144 203.023Z" fill="#007844" fill-opacity="0.05"/>
</svg>
