<svg width="208" height="53" viewBox="0 0 208 53" fill="none" xmlns="http://www.w3.org/2000/svg">
<path d="M27.9111 19.3208C22.0339 31.1194 29.1442 41.1696 39.8503 41.1897C46.7197 41.2027 50.8547 37.0663 51.9849 31.5869C52.3392 29.8693 52.5256 28.0904 52.5256 26.2676C52.5256 11.7604 40.7674 0 26.263 0C24.7302 0 23.2307 0.138762 21.77 0.39077C26.8481 1.20912 34.0351 7.02662 27.9111 19.3208Z" fill="#78D864"/>
<path d="M19.7969 49.22C14.9872 44.6639 11.8252 34.6263 21.2204 21.5988C26.3086 14.5433 28.4606 9.10097 26.1264 4.94713C24.3187 1.73011 20.3734 0.397375 16.925 1.70973C7.03066 5.47523 0 15.0499 0 26.2676C0 40.6432 11.5475 52.3145 25.8702 52.5253C23.2401 51.8693 21.2676 50.6131 19.7969 49.22Z" fill="#007844"/>
<path d="M71.319 7.3804C71.8863 5.99374 72.8317 5.11131 74.7857 5.11131C76.7081 5.11131 77.6535 5.99374 78.2208 7.34889L86.0996 26.5101H81.9396L80.1432 21.9404H69.3651L67.5687 26.5101H63.4402L71.319 7.3804ZM70.5311 18.978H78.9772L75.2269 9.39737C75.0693 9.05071 74.8802 8.98768 74.7857 8.98768C74.6596 8.98768 74.4705 9.05071 74.3129 9.39737L70.5311 18.978ZM87.8997 10.7525H91.4609V16.6459H92.7215L98.5518 10.7525H102.995L95.936 18.001L103.594 26.5101H98.8985L92.5954 19.4822H91.4609V26.5101H87.8997V10.7525ZM105.35 26.5101V10.7525H114.048C117.767 10.7525 119.689 12.2337 119.689 15.1016C119.689 16.5513 119.185 17.4653 118.051 18.0956C119.815 18.8519 120.666 20.0495 120.666 21.8774C120.666 24.9343 118.618 26.5101 114.615 26.5101H105.35ZM108.911 23.9259H114.174C116.128 23.9259 117.105 23.264 117.105 21.8774C117.105 20.4907 116.128 19.8289 114.174 19.8289H108.911V23.9259ZM108.911 17.2762H113.512C115.277 17.2762 116.16 16.6143 116.16 15.2907C116.16 13.9356 115.277 13.3368 113.512 13.3368H108.911V17.2762ZM130.392 10.4689C135.97 10.4689 138.081 12.4543 138.081 17.4337V26.5101H134.52V24.9343H134.331C133.197 26.2265 131.495 26.7937 129.005 26.7937C124.75 26.7937 122.544 25.1549 122.544 21.7513C122.544 18.3477 124.845 16.8034 130.234 16.8034C131.054 16.8034 132.503 16.8349 134.52 16.961V16.5828C134.52 14.0931 133.386 13.3053 130.014 13.3053C128.312 13.3053 126.421 13.5259 124.498 13.9356V11.1937C126.61 10.721 128.406 10.4689 130.392 10.4689ZM126.106 21.7198C126.106 23.3271 127.177 24.0519 129.635 24.0519C133.07 24.0519 134.52 22.7598 134.52 20.1756V19.3877C133.039 19.3246 131.4 19.2616 130.423 19.2616C127.366 19.2616 126.106 19.9865 126.106 21.7198ZM140.964 5.39495H144.746L152.751 18.5683C152.909 18.8204 153.224 18.8204 153.35 18.5683L161.355 5.39495H165.105V26.5101H161.449V11.6034L155.587 21.058C154.894 22.1925 154.138 22.6653 153.003 22.6653C151.869 22.6653 151.112 22.1925 150.419 21.058L144.589 11.6034V26.5101H140.964V5.39495ZM183.797 18.001C183.797 19.6713 183.545 20.0495 182.316 20.0495H171.443C171.821 22.8228 173.397 23.9889 176.738 23.9889C178.345 23.9889 181.024 23.7053 182.536 23.3901V26.0689C180.362 26.5416 178.219 26.7937 176.423 26.7937C170.561 26.7937 167.819 24.2725 167.819 18.8204V18.4422C167.819 13.0531 170.498 10.4689 175.95 10.4689C181.276 10.4689 183.797 13.2107 183.797 18.001ZM171.412 17.4337H180.204C180.173 14.7549 178.818 13.2737 175.95 13.2737C173.05 13.2737 171.695 14.5343 171.412 17.4337ZM186.986 23.7053C188.184 23.7053 188.783 23.1695 188.972 21.5937L190.201 10.7525H202.492V23.7053H204.981V30.8277H201.483V26.5101H189.035V30.8277H185.537V23.7053H186.986ZM191.587 23.7053H198.93V13.5574H193.289L192.312 21.6253C192.218 22.4446 191.966 23.138 191.587 23.7053Z" fill="#007844"/>
<path d="M64.1335 48.0152V36.6697H65.2917V42.0273L70.4681 36.6697H71.9493L66.6626 42.1455L72.3826 48.0152H70.8699L65.2917 42.3424V48.0152H64.1335ZM72.0708 48.0152V46.9988C72.386 47.0566 72.625 47.0434 72.7878 46.9594C72.9559 46.8701 73.0793 46.723 73.1581 46.5182C73.2369 46.3081 73.3025 46.0481 73.3551 45.7382C73.4391 45.2234 73.5153 44.6562 73.5835 44.0364C73.6518 43.4166 73.7122 42.7337 73.7648 41.9879C73.8225 41.2368 73.8803 40.4095 73.9381 39.5061H79.7211V48.0152H78.5708V40.617H75.0096C74.9728 41.1737 74.9308 41.7279 74.8835 42.2794C74.8363 42.8309 74.7864 43.3614 74.7338 43.8709C74.6866 44.3752 74.634 44.84 74.5763 45.2655C74.5185 45.6909 74.4581 46.0586 74.3951 46.3685C74.3005 46.836 74.1744 47.2089 74.0169 47.4873C73.8645 47.7657 73.6361 47.9495 73.3314 48.0388C73.0268 48.1281 72.6066 48.1202 72.0708 48.0152ZM88.6824 39.5061V48.0152H87.5557V41.3891L82.8915 48.0152H81.9145V39.5061H83.0412V46.077L87.7133 39.5061H88.6824ZM90.8859 48.0152V39.5061H92.044V43.2012H96.8422V39.5061H98.0004V48.0152H96.8422V44.3121H92.044V48.0152H90.8859ZM106.964 39.5061V48.0152H105.837V41.3891L101.173 48.0152H100.196V39.5061H101.322V46.077L105.995 39.5061H106.964ZM109.167 48.0152L109.175 39.5061H110.341V43.603L114.139 39.5061H115.683L111.696 43.7606L116.203 48.0152H114.517L110.341 43.9182V48.0152H109.167ZM119.427 48.2515C118.786 48.2515 118.248 48.136 117.812 47.9048C117.381 47.6737 117.058 47.3665 116.843 46.983C116.627 46.5996 116.519 46.182 116.519 45.7303C116.519 45.2681 116.611 44.8741 116.795 44.5485C116.984 44.2176 117.239 43.9471 117.559 43.737C117.885 43.5269 118.261 43.3667 118.686 43.2564C119.117 43.1513 119.592 43.0594 120.112 42.9806C120.637 42.8966 121.15 42.8257 121.649 42.7679C122.153 42.7048 122.594 42.6444 122.972 42.5867L122.563 42.8388C122.578 41.9984 122.415 41.376 122.074 40.9715C121.733 40.5671 121.139 40.3648 120.293 40.3648C119.71 40.3648 119.217 40.4962 118.812 40.7588C118.413 41.0214 118.132 41.4364 117.969 42.0036L116.843 41.6727C117.037 40.9111 117.428 40.3202 118.016 39.9C118.605 39.4798 119.369 39.2697 120.309 39.2697C121.087 39.2697 121.746 39.4168 122.287 39.7109C122.833 39.9998 123.219 40.42 123.445 40.9715C123.55 41.2184 123.618 41.4941 123.65 41.7988C123.681 42.1034 123.697 42.4133 123.697 42.7285V48.0152H122.665V45.88L122.964 46.0061C122.675 46.7362 122.226 47.2929 121.617 47.6764C121.008 48.0598 120.278 48.2515 119.427 48.2515ZM119.561 47.2509C120.102 47.2509 120.574 47.1537 120.979 46.9594C121.383 46.7651 121.709 46.4998 121.956 46.1636C122.203 45.8222 122.363 45.4388 122.436 45.0133C122.499 44.7402 122.534 44.4408 122.539 44.1152C122.544 43.7842 122.547 43.5374 122.547 43.3745L122.988 43.603C122.594 43.6556 122.166 43.7081 121.704 43.7606C121.247 43.8131 120.795 43.8735 120.349 43.9418C119.907 44.0101 119.508 44.0915 119.151 44.1861C118.909 44.2543 118.676 44.3515 118.45 44.4776C118.224 44.5984 118.037 44.7612 117.89 44.9661C117.749 45.1709 117.678 45.4257 117.678 45.7303C117.678 45.9772 117.738 46.2162 117.859 46.4473C117.985 46.6784 118.185 46.8701 118.458 47.0224C118.736 47.1747 119.104 47.2509 119.561 47.2509ZM128.895 48.0152L128.903 39.5061H130.069V43.603L133.866 39.5061H135.411L131.424 43.7606L135.931 48.0152H134.245L130.069 43.9182V48.0152H128.895ZM139.155 48.2515C138.514 48.2515 137.975 48.136 137.539 47.9048C137.109 47.6737 136.786 47.3665 136.57 46.983C136.355 46.5996 136.247 46.182 136.247 45.7303C136.247 45.2681 136.339 44.8741 136.523 44.5485C136.712 44.2176 136.967 43.9471 137.287 43.737C137.613 43.5269 137.988 43.3667 138.414 43.2564C138.845 43.1513 139.32 43.0594 139.84 42.9806C140.365 42.8966 140.877 42.8257 141.376 42.7679C141.881 42.7048 142.322 42.6444 142.7 42.5867L142.29 42.8388C142.306 41.9984 142.143 41.376 141.802 40.9715C141.46 40.5671 140.867 40.3648 140.021 40.3648C139.438 40.3648 138.944 40.4962 138.54 40.7588C138.141 41.0214 137.86 41.4364 137.697 42.0036L136.57 41.6727C136.765 40.9111 137.156 40.3202 137.744 39.9C138.332 39.4798 139.097 39.2697 140.037 39.2697C140.814 39.2697 141.473 39.4168 142.015 39.7109C142.561 39.9998 142.947 40.42 143.173 40.9715C143.278 41.2184 143.346 41.4941 143.378 41.7988C143.409 42.1034 143.425 42.4133 143.425 42.7285V48.0152H142.393V45.88L142.692 46.0061C142.403 46.7362 141.954 47.2929 141.345 47.6764C140.736 48.0598 140.005 48.2515 139.155 48.2515ZM139.288 47.2509C139.829 47.2509 140.302 47.1537 140.707 46.9594C141.111 46.7651 141.437 46.4998 141.684 46.1636C141.93 45.8222 142.091 45.4388 142.164 45.0133C142.227 44.7402 142.261 44.4408 142.267 44.1152C142.272 43.7842 142.275 43.5374 142.275 43.3745L142.716 43.603C142.322 43.6556 141.894 43.7081 141.431 43.7606C140.975 43.8131 140.523 43.8735 140.076 43.9418C139.635 44.0101 139.236 44.0915 138.879 44.1861C138.637 44.2543 138.403 44.3515 138.178 44.4776C137.952 44.5984 137.765 44.7612 137.618 44.9661C137.476 45.1709 137.405 45.4257 137.405 45.7303C137.405 45.9772 137.466 46.2162 137.587 46.4473C137.713 46.6784 137.912 46.8701 138.185 47.0224C138.464 47.1747 138.831 47.2509 139.288 47.2509ZM145.468 48.0152V39.5061H152.236V48.0152H151.078V40.617H146.626V48.0152H145.468ZM158.048 48.2515C157.218 48.2515 156.498 48.0677 155.889 47.7C155.285 47.3323 154.815 46.8149 154.479 46.1479C154.143 45.4808 153.975 44.6982 153.975 43.8C153.975 42.8703 154.14 42.0667 154.471 41.3891C154.802 40.7115 155.267 40.1889 155.865 39.8212C156.469 39.4535 157.181 39.2697 158.001 39.2697C158.841 39.2697 159.558 39.464 160.151 39.8527C160.745 40.2362 161.194 40.7877 161.499 41.5073C161.803 42.2269 161.943 43.0857 161.916 44.0836H160.735V43.6739C160.713 42.5709 160.475 41.7384 160.018 41.1764C159.566 40.6143 158.904 40.3333 158.032 40.3333C157.118 40.3333 156.417 40.6301 155.928 41.2236C155.445 41.8172 155.204 42.6628 155.204 43.7606C155.204 44.8321 155.445 45.6646 155.928 46.2582C156.417 46.8465 157.108 47.1406 158.001 47.1406C158.61 47.1406 159.14 47.0014 159.592 46.723C160.049 46.4394 160.409 46.0323 160.671 45.5018L161.751 45.9194C161.415 46.66 160.918 47.2352 160.262 47.6448C159.61 48.0493 158.872 48.2515 158.048 48.2515ZM154.794 44.0836V43.1145H161.294V44.0836H154.794ZM162.877 48.0152V46.9988C163.192 47.0566 163.431 47.0434 163.594 46.9594C163.762 46.8701 163.885 46.723 163.964 46.5182C164.043 46.3081 164.109 46.0481 164.161 45.7382C164.245 45.2234 164.321 44.6562 164.39 44.0364C164.458 43.4166 164.518 42.7337 164.571 41.9879C164.629 41.2368 164.686 40.4095 164.744 39.5061H170.527V48.0152H169.377V40.617H165.816C165.779 41.1737 165.737 41.7279 165.69 42.2794C165.642 42.8309 165.592 43.3614 165.54 43.8709C165.493 44.3752 165.44 44.84 165.382 45.2655C165.325 45.6909 165.264 46.0586 165.201 46.3685C165.107 46.836 164.981 47.2089 164.823 47.4873C164.671 47.7657 164.442 47.9495 164.138 48.0388C163.833 48.1281 163.413 48.1202 162.877 48.0152ZM172.736 48.0152L172.721 39.5061H173.887V42.7127H175.88C176.127 42.7127 176.368 42.718 176.605 42.7285C176.846 42.739 177.059 42.76 177.243 42.7915C177.663 42.8703 178.036 43.0095 178.362 43.2091C178.693 43.4087 178.95 43.6844 179.134 44.0364C179.323 44.3883 179.418 44.8295 179.418 45.36C179.418 46.0901 179.228 46.6653 178.85 47.0855C178.477 47.5057 178.005 47.7788 177.432 47.9048C177.217 47.9521 176.983 47.9836 176.731 47.9994C176.479 48.0099 176.229 48.0152 175.982 48.0152H172.736ZM173.887 47.0224H175.935C176.114 47.0224 176.313 47.0172 176.534 47.0067C176.755 46.9962 176.949 46.9673 177.117 46.92C177.395 46.8412 177.647 46.6836 177.873 46.4473C178.104 46.2057 178.22 45.8432 178.22 45.36C178.22 44.882 178.11 44.5222 177.889 44.2806C177.668 44.0337 177.374 43.8709 177.007 43.7921C176.844 43.7554 176.668 43.7317 176.479 43.7212C176.29 43.7107 176.108 43.7055 175.935 43.7055H173.887V47.0224ZM180.907 48.0152V39.5061H182.065V43.2012H186.864V39.5061H188.022V48.0152H186.864V44.3121H182.065V48.0152H180.907ZM196.985 39.5061V48.0152H195.858V41.3891L191.194 48.0152H190.217V39.5061H191.344V46.077L196.016 39.5061H196.985ZM206.508 49.4885V48.0152H199.188V39.5061H200.347V46.9042H204.798V39.5061H205.956V46.9436H207.666V49.4885H206.508Z" fill="#3D5B4E"/>
</svg>
