<svg style="min-width:53px;" width="73" height="73" viewBox="0 0 73 73" fill="none" xmlns="http://www.w3.org/2000/svg">
	<path d="M38.5855 26.7104C30.4606 43.0215 40.2903 56.9156 55.091 56.9435C64.5878 56.9614 70.3043 51.243 71.8668 43.6678C72.3566 41.2934 72.6142 38.834 72.6142 36.3141C72.6142 16.2584 56.359 0 36.3071 0C34.1881 0 32.1151 0.191834 30.0957 0.540227C37.1159 1.67157 47.0518 9.71407 38.5855 26.7104Z" fill="#78D864"/>
	<path d="M27.3686 68.0449C20.7193 61.7463 16.348 47.8696 29.3365 29.8595C36.3708 20.1055 39.3459 12.5816 36.119 6.83909C33.6198 2.39166 28.1656 0.549195 23.3983 2.36349C9.71966 7.56916 0 20.8058 0 36.3139C0 56.1877 15.9641 72.323 35.7648 72.6143C32.1286 71.7075 29.4017 69.9708 27.3686 68.0449Z" fill="#007844"/>
</svg>
