<svg width="100%" height="63" viewBox="0 0 201 63" fill="none" xmlns="http://www.w3.org/2000/svg">
	<path d="M11.4586 3.55381C12.2428 1.63679 13.5499 0.416868 16.2511 0.416868C18.9088 0.416868 20.2159 1.63679 21.0001 3.51024L31.8923 30H26.1412L23.6578 23.6825H8.7573L6.27389 30H0.566393L11.4586 3.55381ZM10.3693 19.5871H22.0458L16.8611 6.34221C16.6432 5.86295 16.3818 5.77581 16.2511 5.77581C16.0768 5.77581 15.8154 5.86295 15.5976 6.34221L10.3693 19.5871ZM34.3808 8.21566H39.3041V16.363H41.0468L49.107 8.21566H55.2502L45.4908 18.2365L56.078 30H49.5863L40.8725 20.2842H39.3041V30H34.3808V8.21566ZM58.5052 30V8.21566H70.5302C75.6713 8.21566 78.329 10.2634 78.329 14.2281C78.329 16.2323 77.6319 17.4958 76.0634 18.3672C78.5033 19.4128 79.6796 21.0684 79.6796 23.5954C79.6796 27.8216 76.8477 30 71.3144 30H58.5052ZM63.4285 26.4274H70.7045C73.4057 26.4274 74.7564 25.5124 74.7564 23.5954C74.7564 21.6784 73.4057 20.7634 70.7045 20.7634H63.4285V26.4274ZM63.4285 17.2344H69.7895C72.2294 17.2344 73.4493 16.3194 73.4493 14.4896C73.4493 12.6161 72.2294 11.7883 69.7895 11.7883H63.4285V17.2344ZM93.1246 7.82354C100.836 7.82354 103.755 10.5684 103.755 17.4522V30H98.8321V27.8216H98.5707C97.0023 29.6079 94.6495 30.3921 91.2076 30.3921C85.3259 30.3921 82.276 28.1265 82.276 23.4211C82.276 18.7157 85.4566 16.5808 92.9068 16.5808C94.0396 16.5808 96.0437 16.6244 98.8321 16.7987V16.2759C98.8321 12.8339 97.2637 11.7447 92.6018 11.7447C90.2491 11.7447 87.635 12.0497 84.9773 12.6161V8.82562C87.8964 8.17209 90.3798 7.82354 93.1246 7.82354ZM87.1993 23.3776C87.1993 25.5996 88.6806 26.6016 92.079 26.6016C96.828 26.6016 98.8321 24.8153 98.8321 21.2427V20.1535C96.7844 20.0663 94.5188 19.9792 93.1682 19.9792C88.9421 19.9792 87.1993 20.9813 87.1993 23.3776ZM107.741 0.808986H112.969L124.036 19.0207C124.253 19.3692 124.689 19.3692 124.863 19.0207L135.93 0.808986H141.115V30H136.061V9.39202L127.957 22.4626C126.998 24.0311 125.953 24.6846 124.384 24.6846C122.816 24.6846 121.77 24.0311 120.812 22.4626L112.751 9.39202V30H107.741V0.808986ZM166.956 18.2365C166.956 20.5456 166.607 21.0684 164.908 21.0684H149.877C150.4 24.9025 152.578 26.5145 157.196 26.5145C159.418 26.5145 163.122 26.1224 165.213 25.6867V29.39C162.207 30.0436 159.244 30.3921 156.761 30.3921C148.657 30.3921 144.867 26.9066 144.867 19.3692V18.8464C144.867 11.3962 148.57 7.82354 156.107 7.82354C163.47 7.82354 166.956 11.614 166.956 18.2365ZM149.833 17.4522H161.989C161.945 13.7489 160.072 11.7012 156.107 11.7012C152.099 11.7012 150.225 13.4439 149.833 17.4522ZM171.365 26.1224C173.02 26.1224 173.848 25.3817 174.11 23.2033L175.809 8.21566H192.801V26.1224H196.243V35.9689H191.406V30H174.197V35.9689H169.361V26.1224H171.365ZM177.726 26.1224H187.877V12.0933H180.079L178.728 23.2469C178.597 24.3796 178.249 25.3382 177.726 26.1224Z" fill="#007844"/>
	<path d="M1.5249 60.5229V44.8382H3.12605V52.2449L10.2822 44.8382H12.3299L5.02129 52.4083L12.929 60.5229H10.8377L3.12605 52.6806V60.5229H1.5249ZM12.4979 60.5229V59.1179C12.9336 59.1977 13.264 59.1796 13.4891 59.0634C13.7215 58.94 13.8921 58.7366 14.001 58.4534C14.11 58.163 14.2007 57.8035 14.2733 57.3751C14.3895 56.6635 14.4948 55.8793 14.5892 55.0224C14.6836 54.1656 14.7671 53.2216 14.8397 52.1904C14.9196 51.1521 14.9995 50.0084 15.0794 48.7594H23.0742V60.5229H21.484V50.2952H16.5607C16.5099 51.0649 16.4518 51.831 16.3864 52.5934C16.3211 53.3559 16.2521 54.0893 16.1795 54.7937C16.1141 55.4908 16.0415 56.1334 15.9616 56.7216C15.8817 57.3098 15.7982 57.8181 15.7111 58.2465C15.5804 58.8928 15.4061 59.4083 15.1883 59.7932C14.9777 60.178 14.6618 60.4322 14.2407 60.5556C13.8195 60.6791 13.2386 60.6682 12.4979 60.5229ZM35.4629 48.7594V60.5229H33.9053V51.3626L27.4571 60.5229H26.1065V48.7594H27.6641V57.8435L34.1231 48.7594H35.4629ZM38.5091 60.5229V48.7594H40.1102V53.8678H46.7436V48.7594H48.3447V60.5229H46.7436V55.4036H40.1102V60.5229H38.5091ZM60.7361 48.7594V60.5229H59.1785V51.3626L52.7304 60.5229H51.3797V48.7594H52.9373V57.8435L59.3964 48.7594H60.7361ZM63.7823 60.5229L63.7932 48.7594H65.4053V54.4233L70.6553 48.7594H72.7902L67.2787 54.6412L73.509 60.5229H71.1781L65.4053 54.859V60.5229H63.7823ZM77.966 60.8497C77.0801 60.8497 76.3358 60.69 75.7331 60.3705C75.1376 60.051 74.6911 59.6262 74.3933 59.0961C74.0956 58.566 73.9468 57.9887 73.9468 57.3642C73.9468 56.7252 74.0738 56.1806 74.328 55.7304C74.5894 55.2729 74.9416 54.899 75.3845 54.6085C75.8347 54.318 76.3539 54.0966 76.9421 53.9441C77.5376 53.7989 78.1947 53.6718 78.9136 53.5629C79.6397 53.4467 80.3477 53.3486 81.0376 53.2688C81.7347 53.1816 82.3446 53.0981 82.8675 53.0182L82.3011 53.3668C82.3228 52.205 82.0977 51.3445 81.6257 50.7853C81.1538 50.2262 80.3332 49.9467 79.1641 49.9467C78.3581 49.9467 77.6755 50.1282 77.1164 50.4913C76.5645 50.8543 76.176 51.428 75.9509 52.2122L74.3933 51.7548C74.662 50.7018 75.203 49.8849 76.0163 49.304C76.8296 48.7231 77.8861 48.4326 79.1859 48.4326C80.2606 48.4326 81.1719 48.636 81.9198 49.0426C82.675 49.442 83.2087 50.0229 83.521 50.7853C83.6662 51.1266 83.7606 51.5079 83.8042 51.929C83.8477 52.3502 83.8695 52.7786 83.8695 53.2143V60.5229H82.4427V57.5712L82.8566 57.7454C82.4572 58.7548 81.8363 59.5245 80.994 60.0546C80.1517 60.5847 79.1423 60.8497 77.966 60.8497ZM78.1511 59.4664C78.8991 59.4664 79.5526 59.3321 80.1117 59.0634C80.6709 58.7947 81.1211 58.428 81.4624 57.9633C81.8037 57.4913 82.0251 56.9612 82.1268 56.373C82.2139 55.9954 82.2611 55.5815 82.2684 55.1313C82.2756 54.6739 82.2793 54.3326 82.2793 54.1075L82.8892 54.4233C82.3446 54.4959 81.7528 54.5686 81.1138 54.6412C80.4821 54.7138 79.8576 54.7973 79.2404 54.8917C78.6304 54.9861 78.0785 55.0986 77.5848 55.2294C77.2507 55.3238 76.9276 55.4581 76.6153 55.6324C76.3031 55.7994 76.0453 56.0245 75.842 56.3077C75.6459 56.5909 75.5479 56.9431 75.5479 57.3642C75.5479 57.7055 75.6314 58.0359 75.7984 58.3554C75.9727 58.6749 76.2486 58.94 76.6262 59.1505C77.0111 59.3611 77.5194 59.4664 78.1511 59.4664ZM91.0553 60.5229L91.0662 48.7594H92.6782V54.4233L97.9283 48.7594H100.063L94.5517 54.6412L100.782 60.5229H98.4511L92.6782 54.859V60.5229H91.0553ZM105.239 60.8497C104.353 60.8497 103.609 60.69 103.006 60.3705C102.411 60.051 101.964 59.6262 101.666 59.0961C101.369 58.566 101.22 57.9887 101.22 57.3642C101.22 56.7252 101.347 56.1806 101.601 55.7304C101.862 55.2729 102.215 54.899 102.657 54.6085C103.108 54.318 103.627 54.0966 104.215 53.9441C104.811 53.7989 105.468 53.6718 106.187 53.5629C106.913 53.4467 107.621 53.3486 108.311 53.2688C109.008 53.1816 109.618 53.0981 110.14 53.0182L109.574 53.3668C109.596 52.205 109.371 51.3445 108.899 50.7853C108.427 50.2262 107.606 49.9467 106.437 49.9467C105.631 49.9467 104.948 50.1282 104.389 50.4913C103.837 50.8543 103.449 51.428 103.224 52.2122L101.666 51.7548C101.935 50.7018 102.476 49.8849 103.289 49.304C104.103 48.7231 105.159 48.4326 106.459 48.4326C107.534 48.4326 108.445 48.636 109.193 49.0426C109.948 49.442 110.482 50.0229 110.794 50.7853C110.939 51.1266 111.034 51.5079 111.077 51.929C111.121 52.3502 111.142 52.7786 111.142 53.2143V60.5229H109.716V57.5712L110.13 57.7454C109.73 58.7548 109.109 59.5245 108.267 60.0546C107.425 60.5847 106.415 60.8497 105.239 60.8497ZM105.424 59.4664C106.172 59.4664 106.826 59.3321 107.385 59.0634C107.944 58.7947 108.394 58.428 108.735 57.9633C109.077 57.4913 109.298 56.9612 109.4 56.373C109.487 55.9954 109.534 55.5815 109.541 55.1313C109.549 54.6739 109.552 54.3326 109.552 54.1075L110.162 54.4233C109.618 54.4959 109.026 54.5686 108.387 54.6412C107.755 54.7138 107.131 54.7973 106.513 54.8917C105.903 54.9861 105.351 55.0986 104.858 55.2294C104.524 55.3238 104.201 55.4581 103.888 55.6324C103.576 55.7994 103.318 56.0245 103.115 56.3077C102.919 56.5909 102.821 56.9431 102.821 57.3642C102.821 57.7055 102.904 58.0359 103.071 58.3554C103.246 58.6749 103.522 58.94 103.899 59.1505C104.284 59.3611 104.792 59.4664 105.424 59.4664ZM113.967 60.5229V48.7594H123.324V60.5229H121.722V50.2952H115.568V60.5229H113.967ZM131.358 60.8497C130.211 60.8497 129.216 60.5956 128.374 60.0873C127.539 59.579 126.889 58.8637 126.424 57.9415C125.959 57.0193 125.727 55.9373 125.727 54.6956C125.727 53.4104 125.956 52.2994 126.413 51.3626C126.871 50.4259 127.513 49.7034 128.341 49.1951C129.176 48.6868 130.16 48.4326 131.293 48.4326C132.455 48.4326 133.446 48.7013 134.267 49.2387C135.087 49.7687 135.708 50.5312 136.129 51.526C136.55 52.5208 136.743 53.7081 136.706 55.0878H135.073V54.5214C135.044 52.9965 134.713 51.8455 134.081 51.0685C133.457 50.2916 132.542 49.9031 131.337 49.9031C130.073 49.9031 129.104 50.3134 128.428 51.1339C127.76 51.9544 127.426 53.1235 127.426 54.6412C127.426 56.1225 127.76 57.2735 128.428 58.094C129.104 58.9073 130.059 59.3139 131.293 59.3139C132.135 59.3139 132.869 59.1215 133.493 58.7366C134.125 58.3445 134.622 57.7818 134.985 57.0483L136.478 57.6256C136.013 58.6495 135.327 59.4446 134.419 60.011C133.519 60.5701 132.498 60.8497 131.358 60.8497ZM126.86 55.0878V53.748H135.846V55.0878H126.86ZM138.034 60.5229V59.1179C138.47 59.1977 138.8 59.1796 139.026 59.0634C139.258 58.94 139.429 58.7366 139.538 58.4534C139.646 58.163 139.737 57.8035 139.81 57.3751C139.926 56.6635 140.031 55.8793 140.126 55.0224C140.22 54.1656 140.304 53.2216 140.376 52.1904C140.456 51.1521 140.536 50.0084 140.616 48.7594H148.611V60.5229H147.02V50.2952H142.097C142.046 51.0649 141.988 51.831 141.923 52.5934C141.858 53.3559 141.789 54.0893 141.716 54.7937C141.651 55.4908 141.578 56.1334 141.498 56.7216C141.418 57.3098 141.335 57.8181 141.248 58.2465C141.117 58.8928 140.943 59.4083 140.725 59.7932C140.514 60.178 140.198 60.4322 139.777 60.5556C139.356 60.6791 138.775 60.6682 138.034 60.5229ZM151.665 60.5229L151.643 48.7594H153.255V53.1925H156.011C156.352 53.1925 156.686 53.1998 157.013 53.2143C157.347 53.2288 157.641 53.2579 157.895 53.3014C158.476 53.4104 158.992 53.6028 159.442 53.8787C159.899 54.1547 160.255 54.5359 160.509 55.0224C160.771 55.5089 160.901 56.1189 160.901 56.8523C160.901 57.8616 160.64 58.6568 160.117 59.2377C159.602 59.8186 158.948 60.1962 158.157 60.3705C157.859 60.4358 157.536 60.4794 157.187 60.5012C156.839 60.5157 156.494 60.5229 156.152 60.5229H151.665ZM153.255 59.1505H156.087C156.334 59.1505 156.61 59.1433 156.915 59.1288C157.22 59.1142 157.488 59.0743 157.721 59.0089C158.106 58.9 158.454 58.6822 158.766 58.3554C159.086 58.0214 159.246 57.5203 159.246 56.8523C159.246 56.1915 159.093 55.6941 158.788 55.3601C158.483 55.0188 158.077 54.7937 157.568 54.6847C157.343 54.6339 157.1 54.6012 156.839 54.5867C156.577 54.5722 156.327 54.5649 156.087 54.5649H153.255V59.1505ZM162.961 60.5229V48.7594H164.562V53.8678H171.195V48.7594H172.796V60.5229H171.195V55.4036H164.562V60.5229H162.961ZM185.188 48.7594V60.5229H183.63V51.3626L177.182 60.5229H175.831V48.7594H177.389V57.8435L183.848 48.7594H185.188ZM198.353 62.5598V60.5229H188.234V48.7594H189.835V58.9872H195.989V48.7594H197.59V59.0416H199.954V62.5598H198.353Z" fill="#3D5B4E"/>
</svg>
